<?xml version="1.0" encoding="utf-8"?>
<!-- Generator: Adobe Illustrator 25.4.1, SVG Export Plug-In . SVG Version: 6.00 Build 0)  -->
<svg version="1.1" id="Layer_1" xmlns="http://www.w3.org/2000/svg" xmlns:xlink="http://www.w3.org/1999/xlink" x="0px" y="0px"
	 viewBox="0 0 62 62" style="enable-background:new 0 0 62 62;" xml:space="preserve">
<style type="text/css">
	.st0{fill:none;stroke:#007041;stroke-width:2;stroke-miterlimit:10;}
	.st1{fill:none;stroke:#007041;stroke-width:2;stroke-linecap:round;stroke-miterlimit:10;}
	.st2{fill:none;stroke:#007041;stroke-width:2;stroke-linecap:round;stroke-miterlimit:10;stroke-dasharray:12,12,12,12;}
	.st3{fill:#007041;}
	.st4{fill:none;stroke:#747777;stroke-width:2;stroke-linecap:round;stroke-miterlimit:10;}
	.st5{fill:none;stroke:#007041;stroke-width:3;stroke-miterlimit:10;}
	.st6{opacity:0.46;fill:#007041;}
</style>
<g>
	<g>
		<path class="st0" d="M45.9,16.3c-0.1,3.5,0.5,8.5-3.2,10.5c-2.4,1.3-5.4,1.5-8,0.6c1.3-0.5,2.4-1.2,3.4-2.1c3-3,1-7.6,0.2-11
			c-0.7-2.6-1.5-5.3-2.5-7.8c0.4-0.5,0.8-1,1.3-1.5c0,0,7-8.4,8.6,2.5C45.9,10.4,46,13.4,45.9,16.3z"/>
		<path class="st0" d="M38.1,25.3c-1,0.9-2.1,1.7-3.4,2.1c-2.3,0.9-4.9,0.9-7.2,0.1c-1.1-0.4-2.1-1-2.9-1.8c0,0-5.7-4.2,1.9-19.6
			c0-0.1,0.1-0.1,0.1-0.2c0,0,4.5-10,8.9,0c0.1,0.2,0.2,0.4,0.2,0.6c1,2.5,1.9,5.2,2.5,7.8C39.1,17.7,41.1,22.4,38.1,25.3z"/>
		<path class="st0" d="M27.5,27.6c-2.5,0.8-5.4,0.6-7.7-0.7c-3.7-2-3.1-7.1-3.2-10.5c-0.1-2.9,0-5.9,0.3-8.8
			c1.5-10.9,8.6-2.5,8.6-2.5c0.3,0.4,0.7,0.8,1,1.1c-7.6,15.4-1.9,19.6-1.9,19.6C25.4,26.6,26.5,27.2,27.5,27.6z"/>
	</g>
	<line class="st1" x1="31.3" y1="17.1" x2="31.3" y2="60.5"/>
	<path class="st1" d="M31.3,44.9c0,0,4.2-11.7,17.1-9.5c0.4,0.1,0.7,0.4,0.7,0.8c0.2,3.3,0,18-16.5,18.7c-0.6,0-1.1-0.6-0.8-1.1
		c1.4-3.2,5.9-11.9,16-16.5"/>
	<path class="st1" d="M31.3,45.4c0,0-4.7-12.3-17.7-10c-0.4,0.1-0.7,0.4-0.7,0.8c-0.2,3.3,0,18,16.5,18.7c0.6,0,1.1-0.6,0.8-1.1
		c-1.4-3.2-5.9-11.9-16-16.5"/>
</g>
</svg>
